name ./resultDataOpenSim/trcMotMarkerGrf/sub06/grf-03-07.mot
datacolumns 19
datarows 17
range 0.97600000 1.04000000
endheader

                time	     ground_force_vx	     ground_force_vy	     ground_force_vz	     ground_force_px	     ground_force_py	     ground_force_pz	   l_ground_force_vx	   l_ground_force_vy	   l_ground_force_vz	   l_ground_force_px	   l_ground_force_py	   l_ground_force_pz	     ground_torque_x	     ground_torque_y	     ground_torque_z	   l_ground_torque_x	   l_ground_torque_y	   l_ground_torque_z	
          0.97600000	          0.00000000	          0.00000000	          0.00000000	          0.00000000	          0.00000000	          0.00000000	         88.36115704	        563.30718664	         28.54547233	          0.08653745	         -0.05000000	         -0.00765773	          0.00000000	          0.00000000	          0.00000000	          0.00000000	         -2.50474299	          0.00000000	
          0.98000000	          0.00000000	          0.00000000	          0.00000000	          0.00000000	          0.00000000	          0.00000000	         95.69064754	        589.14758121	         29.31345627	          0.08693135	         -0.05000000	         -0.00742194	          0.00000000	          0.00000000	          0.00000000	          0.00000000	         -2.58872013	          0.00000000	
          0.98400000	          0.00000000	          0.00000000	          0.00000000	          0.00000000	          0.00000000	          0.00000000	        103.55932943	        614.48195200	         29.89785847	          0.08734127	         -0.05000000	         -0.00717566	          0.00000000	          0.00000000	          0.00000000	          0.00000000	         -2.67556671	          0.00000000	
          0.98800000	          0.00000000	          0.00000000	          0.00000000	          0.00000000	          0.00000000	          0.00000000	        111.88674291	        638.92363107	         30.24299653	          0.08775637	         -0.05000000	         -0.00691848	          0.00000000	          0.00000000	          0.00000000	          0.00000000	         -2.76784900	          0.00000000	
          0.99200000	          0.00000000	          0.00000000	          0.00000000	          0.00000000	          0.00000000	          0.00000000	        120.58550420	        662.11804035	         30.28429541	          0.08817331	         -0.05000000	         -0.00665163	          0.00000000	          0.00000000	          0.00000000	          0.00000000	         -2.86760952	          0.00000000	
          0.99600000	          0.00000000	          0.00000000	          0.00000000	          0.00000000	          0.00000000	          0.00000000	        129.55772461	        683.71588821	         29.97573187	          0.08856864	         -0.05000000	         -0.00638513	          0.00000000	          0.00000000	          0.00000000	          0.00000000	         -2.97500270	          0.00000000	
          1.00000000	          0.00000000	          0.00000000	          0.00000000	          0.00000000	          0.00000000	          0.00000000	        138.69794260	        703.30823257	         29.33039742	          0.08893369	         -0.05000000	         -0.00612209	          0.00000000	          0.00000000	          0.00000000	          0.00000000	         -3.08730379	          0.00000000	
          1.00400000	          0.00000000	          0.00000000	          0.00000000	          0.00000000	          0.00000000	          0.00000000	        147.90567899	        720.44797509	         28.43289257	          0.08928446	         -0.05000000	         -0.00585415	          0.00000000	          0.00000000	          0.00000000	          0.00000000	         -3.19883260	          0.00000000	
          1.00800000	          0.00000000	          0.00000000	          0.00000000	          0.00000000	          0.00000000	          0.00000000	        157.09539667	        734.75901178	         27.40202910	          0.08965099	         -0.05000000	         -0.00557243	          0.00000000	          0.00000000	          0.00000000	          0.00000000	         -3.30202615	          0.00000000	
          1.01200000	          0.00000000	          0.00000000	          0.00000000	          0.00000000	          0.00000000	          0.00000000	        166.20052997	        746.02396850	         26.33814966	          0.09006829	         -0.05000000	         -0.00526500	          0.00000000	          0.00000000	          0.00000000	          0.00000000	         -3.38928894	          0.00000000	
          1.01600000	          0.00000000	          0.00000000	          0.00000000	          0.00000000	          0.00000000	          0.00000000	        175.16290780	        754.20082189	         25.29357801	          0.09055631	         -0.05000000	         -0.00492772	          0.00000000	          0.00000000	          0.00000000	          0.00000000	         -3.45473500	          0.00000000	
          1.02000000	          0.00000000	          0.00000000	          0.00000000	          0.00000000	          0.00000000	          0.00000000	        183.90336044	        759.37390830	         24.27107627	          0.09111452	         -0.05000000	         -0.00456465	          0.00000000	          0.00000000	          0.00000000	          0.00000000	         -3.49502055	          0.00000000	
          1.02400000	          0.00000000	          0.00000000	          0.00000000	          0.00000000	          0.00000000	          0.00000000	        192.30968705	        761.66888528	         23.24201484	          0.09172827	         -0.05000000	         -0.00418605	          0.00000000	          0.00000000	          0.00000000	          0.00000000	         -3.50909871	          0.00000000	
          1.02800000	          0.00000000	          0.00000000	          0.00000000	          0.00000000	          0.00000000	          0.00000000	        200.26828871	        761.17615849	         22.17408805	          0.09237607	         -0.05000000	         -0.00380796	          0.00000000	          0.00000000	          0.00000000	          0.00000000	         -3.49735430	          0.00000000	
          1.03200000	          0.00000000	          0.00000000	          0.00000000	          0.00000000	          0.00000000	          0.00000000	        207.69226414	        757.90406683	         21.05669186	          0.09302857	         -0.05000000	         -0.00344640	          0.00000000	          0.00000000	          0.00000000	          0.00000000	         -3.46078766	          0.00000000	
          1.03600000	          0.00000000	          0.00000000	          0.00000000	          0.00000000	          0.00000000	          0.00000000	        214.50395215	        751.75915465	         19.90779385	          0.09365429	         -0.05000000	         -0.00311391	          0.00000000	          0.00000000	          0.00000000	          0.00000000	         -3.40067613	          0.00000000	
          1.04000000	          0.00000000	          0.00000000	          0.00000000	          0.00000000	          0.00000000	          0.00000000	        220.60357007	        742.56421210	         18.74937784	          0.09424094	         -0.05000000	         -0.00281530	          0.00000000	          0.00000000	          0.00000000	          0.00000000	         -3.31866624	          0.00000000	
